<svg width="65" height="100" viewBox="0 0 65 100" fill="none" xmlns="http://www.w3.org/2000/svg">
<path d="M22.9732 9.29176C23.9333 10.147 25.177 10.6198 26.466 10.6198C27.755 10.6198 28.9987 10.147 29.9588 9.29176C30.5484 8.78443 31.021 8.15654 31.3442 7.45097C31.6675 6.7454 31.8337 5.97878 31.8317 5.20346C31.7928 3.80204 31.2023 2.47177 30.1872 1.49874C29.1721 0.525703 27.8135 -0.0123732 26.4036 0.000216033C24.9936 0.0128053 23.645 0.575059 22.6476 1.56606C21.6503 2.55707 21.0839 3.89766 21.0703 5.29955C21.0865 6.06142 21.2644 6.81129 21.5924 7.50005C21.9203 8.18882 22.3908 8.80094 22.9732 9.29634" fill="#242037"/>
<path d="M13.5552 10.6173C14.1432 10.6141 14.7229 10.4801 15.252 10.2251C15.7812 9.9702 16.2462 9.60079 16.6131 9.14398C17.219 8.3987 17.5445 7.46666 17.5335 6.50843C17.5364 5.98875 17.4345 5.47377 17.2339 4.99391C17.0332 4.51404 16.7379 4.07901 16.3653 3.71454C15.9928 3.35006 15.5505 3.06353 15.0647 2.87185C14.5789 2.68018 14.0593 2.58726 13.5368 2.59858C11.3325 2.61917 9.49408 4.41509 9.50789 6.53131C9.51892 7.48855 9.86283 8.4125 10.4812 9.14626C10.8541 9.60185 11.3237 9.96994 11.8563 10.2242C12.3888 10.4785 12.9713 10.6128 13.5621 10.6173" fill="#242037"/>
<path d="M6.96474 68.3013C8.79167 68.8938 10.6255 68.8549 12.4869 68.5689C16.5642 67.9444 19.0998 65.2287 20.08 60.66C20.1605 60.2848 20.2295 59.825 20.2916 59.2873C20.6253 56.4184 20.7012 51.4882 20.6644 46.9332V46.9172C20.6644 46.0021 19.9741 45.2791 19.1642 45.3157C18.5775 45.3363 18.0137 45.3455 17.4523 45.3455C16.479 45.3455 15.5403 45.3157 14.6268 45.2563C13.6029 45.1899 12.7377 46.0867 12.7354 47.2306C12.7239 51.4608 12.6319 55.5674 12.4202 57.2969C12.2842 58.2329 12.0529 59.1528 11.7299 60.0423C11.5252 60.6486 11.2214 61.2617 10.4828 61.2846C9.68443 61.312 9.40372 60.644 9.1023 60.0263C8.89915 59.5788 8.74487 59.1109 8.64212 58.6307C8.22266 56.7276 8.00366 54.7862 7.98865 52.838C7.97024 51.8451 8.00706 49.3057 8.08069 46.4047C8.1076 45.8056 7.9616 45.2114 7.6599 44.6921C7.35821 44.1728 6.91341 43.7502 6.37801 43.474C5.55922 43.0825 4.78738 42.6006 4.07709 42.0373C3.39401 41.4911 2.77637 40.8685 2.23636 40.1819C1.56219 39.3263 0.298984 39.7953 0.23686 40.9346C-0.0967734 46.9012 -0.0530543 55.7023 0.368014 58.6811C0.620224 60.7176 1.28558 62.6821 2.32379 64.4555C3.47425 66.3429 4.97445 67.6584 6.96474 68.3036" fill="#242037"/>
<path d="M36.5985 40.9215C35.9187 41.3905 35.2067 41.8117 34.4679 42.1821C31.5388 43.6577 28.3198 44.5248 24.0447 44.9732C23.649 45.1347 23.3094 45.4076 23.0674 45.7583C22.8254 46.109 22.6917 46.5223 22.6826 46.9476V47.0139C22.4916 50.4616 22.3788 53.6028 22.3236 54.9663C22.2638 56.4282 22.25 57.8924 22.3236 59.3497C22.3837 60.8357 22.5374 62.3166 22.7838 63.7835C23.0139 65.1882 23.2003 66.6341 23.7939 67.9015C25.6876 68.1303 30.6322 68.0434 31.5135 67.7368C31.2374 65.9798 30.959 64.1999 30.6506 62.2461H32.0956C33.6348 62.2439 35.1544 61.9033 36.5456 61.2486C38.7706 60.2122 40.2846 58.4483 40.9979 55.8494C41.2904 54.6903 41.4091 53.4946 41.3499 52.301C41.1843 49.062 40.8131 45.8367 40.2386 42.6442C40.237 42.6298 40.237 42.6152 40.2386 42.6007C39.8957 40.8025 38.0205 39.9515 36.6169 40.9215M34.4103 53.3374C34.2585 54.2525 34.0353 54.9251 33.7385 55.1402C33.1798 55.5598 32.4989 55.7871 31.7988 55.7876H31.785C31.585 55.7959 31.3854 55.7648 31.1975 55.6963C31.0097 55.6277 30.8373 55.5229 30.6902 55.3879C30.5431 55.253 30.4243 55.0905 30.3405 54.9098C30.2567 54.7291 30.2097 54.5337 30.202 54.3349C30.202 53.2687 30.2273 51.7977 30.2641 50.258C30.2738 50.0347 30.3517 49.8197 30.4873 49.6415C30.6229 49.4634 30.8099 49.3305 31.0234 49.2605C31.9069 48.9425 33.3588 48.8029 34.0721 50.8826C34.2608 51.4362 34.4656 53.0079 34.4103 53.3374Z" fill="#242037"/>
<path d="M36.9771 70.1222C29.4945 71.9341 12.2492 71.9524 4.68147 70.1474C2.78551 69.6898 1 71.3279 1 73.4875V97.4591H11.8373V82.5312H16.3977C16.2505 85.4436 16.1055 92.5975 15.9514 95.638L26.1628 95.1301V82.1354H30.3643V98.4566H41.3489C41.1188 89.9277 40.9048 81.6413 40.6862 73.3526C40.6287 71.2135 38.8455 69.6692 36.9702 70.1222" fill="#242037"/>
<path d="M0.496896 27.8505C0.704214 29.1232 1.01195 30.3777 1.41726 31.6024C1.41624 31.6131 1.41624 31.6238 1.41726 31.6345C3.11304 36.6837 6.44476 40.4814 11.8105 42.4215C11.8703 42.4443 11.9325 42.4672 11.9923 42.4855C17.1762 44.3158 22.4983 44.0298 27.6569 42.0691C27.9859 41.9456 28.3104 41.8152 28.6279 41.6802C33.522 39.6212 37.3392 36.3611 38.6231 30.6988C39.536 26.6776 39.7446 22.5301 39.2397 18.4384C39.0419 17.3708 38.7995 16.3116 38.5126 15.2607C38.2825 14.4188 37.7649 14.3707 37.0723 14.373C34.18 14.3845 8.20266 14.2426 3.32702 14.2266C0.936368 14.2266 0.934063 14.1854 0.418658 16.5693C0.388746 16.7043 0.381844 16.8438 0.361135 16.9811C0.285205 17.4661 0.216184 17.9534 0.151758 18.4384C-0.129359 21.5741 -0.019621 24.7324 0.478484 27.8413M11.6632 26.4137C16.4814 29.3879 21.4905 29.4519 26.6951 26.4137C27.818 25.7594 28.9247 25.0639 30.0936 24.3547C28.0895 27.6377 23.4209 30.8795 18.971 30.9504C15.2895 31.0076 10.7613 28.26 9.41295 24.9724C10.2436 25.51 10.9477 25.979 11.6632 26.4229" fill="#242037"/>
<path d="M47.6118 14.2422H45.1406V98.8062H47.6118V14.2422Z" fill="#242037"/>
<path d="M63.8231 14.2422V15.2717L53.9475 20.4559L63.8231 25.6057V26.6215H51.2969V25.9351L62.783 25.9168L52.659 20.6069V20.2866L62.783 14.9606H51.2969V14.2422H63.8231Z" fill="#242037" stroke="#242037" stroke-miterlimit="10"/>
<path d="M63.898 41.35C63.9026 42.4729 63.6143 43.5778 63.0615 44.5569C62.5086 45.536 61.71 46.356 60.7435 46.9368C59.7812 47.5015 58.6844 47.7993 57.567 47.7993C56.4497 47.7993 55.3529 47.5015 54.3906 46.9368C53.4188 46.3592 52.6142 45.5408 52.0555 44.5616C51.4968 43.5824 51.2031 42.4758 51.2031 41.35C51.2031 40.2242 51.4968 39.1176 52.0555 38.1384C52.6142 37.1592 53.4188 36.3408 54.3906 35.7632C55.3524 35.1971 56.4494 34.8984 57.567 34.8984C58.6847 34.8984 59.7817 35.1971 60.7435 35.7632C61.7034 36.3344 62.4966 37.1451 63.0444 38.115C63.6101 39.1 63.9045 40.2158 63.898 41.35ZM63.1617 41.35C63.1633 40.3608 62.9075 39.388 62.4193 38.5261C61.9311 37.6643 61.2269 36.9426 60.3753 36.4312C59.5255 35.9296 58.5554 35.6649 57.567 35.6649C56.5787 35.6649 55.6087 35.9296 54.7588 36.4312C53.9047 36.9345 53.1973 37.6505 52.7064 38.5085C52.2083 39.3736 51.9463 40.3532 51.9463 41.35C51.9463 42.3468 52.2083 43.3263 52.7064 44.1914C53.1973 45.0488 53.9048 45.7641 54.7588 46.2665C55.6087 46.7681 56.5787 47.0328 57.567 47.0328C58.5554 47.0328 59.5255 46.7681 60.3753 46.2665C61.2294 45.7576 61.936 45.0371 62.426 44.1753C62.9161 43.3135 63.1727 42.34 63.1709 41.35H63.1617Z" fill="#242037" stroke="#242037" stroke-miterlimit="10"/>
<path d="M62.9803 64.2283C62.4426 65.1902 61.6572 65.9925 60.7047 66.5527C59.7491 67.1125 58.6603 67.4077 57.5513 67.4077C56.4422 67.4077 55.3534 67.1125 54.3979 66.5527C53.4434 65.9908 52.6577 65.1851 52.1222 64.2192C51.5665 63.2345 51.2794 62.1225 51.2893 60.9934V56.0586H63.8155V61.0117C63.8252 62.1381 63.5372 63.2474 62.9803 64.2283ZM52.7665 63.8348C53.2445 64.6825 53.9359 65.3921 54.7729 65.8939C55.6139 66.3896 56.5736 66.6511 57.5513 66.6511C58.5289 66.6511 59.4886 66.3896 60.3296 65.8939C61.1773 65.387 61.8777 64.6695 62.3618 63.8119C62.8459 62.9542 63.0971 61.986 63.0907 61.0025V56.8159H52.0279V61.0208C52.0217 62.0076 52.2781 62.9784 52.7711 63.8348H52.7665Z" fill="#242037" stroke="#242037" stroke-miterlimit="10"/>
<path d="M63.8231 75.668V83.705H63.0868V76.4252H58.0869V82.9089H57.3345V76.4252H52.0309V83.9429H51.2969V75.668H63.8231Z" fill="#242037" stroke="#242037" stroke-miterlimit="10"/>
<path d="M63.8231 92.5117V93.2598H52.0309V98.8032H51.2969V92.5117H63.8231Z" fill="#242037" stroke="#242037" stroke-miterlimit="10"/>
</svg>
