<svg width="19" height="20" viewBox="0 0 19 20" fill="none" xmlns="http://www.w3.org/2000/svg">
<path d="M14.4824 3.68424C14.2667 3.68424 14.0558 3.75247 13.8765 3.88029C13.6971 4.00812 13.5573 4.1898 13.4748 4.40236C13.3923 4.61493 13.3707 4.84883 13.4127 5.07448C13.4548 5.30014 13.5587 5.50742 13.7112 5.67011C13.8637 5.8328 14.0581 5.94359 14.2696 5.98848C14.4812 6.03336 14.7004 6.01033 14.8997 5.92228C15.099 5.83423 15.2693 5.68513 15.3892 5.49383C15.509 5.30253 15.573 5.07761 15.573 4.84754C15.573 4.53901 15.4581 4.24312 15.2535 4.02496C15.049 3.8068 14.7716 3.68424 14.4824 3.68424ZM18.663 6.03022C18.6453 5.2259 18.5041 4.43011 18.2449 3.67455C18.0138 3.02808 17.6541 2.4427 17.1907 1.95869C16.7406 1.46179 16.1906 1.08057 15.582 0.843866C14.8756 0.559015 14.1287 0.404926 13.3736 0.388243C12.4103 0.330078 12.1013 0.330078 9.62925 0.330078C7.15725 0.330078 6.84825 0.330078 5.8849 0.388243C5.1298 0.404926 4.38292 0.559015 3.67646 0.843866C3.06907 1.08297 2.51946 1.46386 2.06784 1.95869C1.602 2.43872 1.24461 3.02547 1.02269 3.67455C0.755644 4.42811 0.611186 5.22479 0.595545 6.03022C0.541016 7.0578 0.541016 7.3874 0.541016 10.0242C0.541016 12.661 0.541016 12.9906 0.595545 14.0182C0.611186 14.8236 0.755644 15.6203 1.02269 16.3738C1.24461 17.0229 1.602 17.6097 2.06784 18.0897C2.51946 18.5845 3.06907 18.9654 3.67646 19.2045C4.38292 19.4894 5.1298 19.6435 5.8849 19.6601C6.84825 19.7183 7.15725 19.7183 9.62925 19.7183C12.1013 19.7183 12.4103 19.7183 13.3736 19.6601C14.1287 19.6435 14.8756 19.4894 15.582 19.2045C16.1906 18.9678 16.7406 18.5866 17.1907 18.0897C17.6562 17.6075 18.0162 17.0216 18.2449 16.3738C18.5041 15.6183 18.6453 14.8225 18.663 14.0182C18.663 12.9906 18.7175 12.661 18.7175 10.0242C18.7175 7.3874 18.7175 7.0578 18.663 6.03022ZM17.0271 13.9018C17.0205 14.5172 16.916 15.1269 16.7181 15.7049C16.573 16.1268 16.3399 16.508 16.0365 16.8198C15.7417 17.1402 15.385 17.3883 14.9913 17.5468C14.4494 17.7579 13.8778 17.8694 13.3009 17.8764C12.3921 17.9249 12.0558 17.9346 9.6656 17.9346C7.2754 17.9346 6.93913 17.9346 6.03031 17.8764C5.4313 17.8884 4.83484 17.79 4.26719 17.5856C3.89074 17.4189 3.55045 17.1715 3.26749 16.8585C2.96584 16.5471 2.73568 16.1656 2.59496 15.7437C2.37307 15.1574 2.25001 14.5338 2.23143 13.9018C2.23143 12.9324 2.1769 12.5737 2.1769 10.0242C2.1769 7.47464 2.1769 7.11596 2.23143 6.14655C2.2355 5.51745 2.34317 4.89402 2.54952 4.30467C2.70951 3.89549 2.95509 3.53074 3.26749 3.23831C3.5436 2.905 3.88484 2.64028 4.26719 2.46278C4.82117 2.24956 5.40504 2.13811 5.99396 2.13318C6.90278 2.13318 7.23904 2.07502 9.62925 2.07502C12.0195 2.07502 12.3557 2.07502 13.2645 2.13318C13.8414 2.14024 14.413 2.25169 14.955 2.46278C15.368 2.62628 15.7386 2.89208 16.0365 3.23831C16.3343 3.5361 16.567 3.90016 16.7181 4.30467C16.9201 4.89497 17.0246 5.51816 17.0271 6.14655C17.0725 7.11596 17.0816 7.47464 17.0816 10.0242C17.0816 12.5737 17.0725 12.9324 17.0271 13.9018ZM9.62925 5.05111C8.70753 5.05303 7.80702 5.34632 7.04152 5.89394C6.27601 6.44155 5.67985 7.21891 5.32836 8.12779C4.97688 9.03667 4.88585 10.0363 5.06677 11.0003C5.24769 11.9644 5.69244 12.8496 6.34483 13.5441C6.99722 14.2386 7.82797 14.7113 8.73211 14.9024C9.63626 15.0935 10.5732 14.9945 11.4246 14.6178C12.276 14.2411 13.0036 13.6037 13.5155 12.7861C14.0274 11.9685 14.3006 11.0074 14.3006 10.0242C14.3018 9.36994 14.1817 8.72189 13.9473 8.11732C13.7128 7.51275 13.3687 6.96358 12.9345 6.5014C12.5004 6.03923 11.9849 5.67316 11.4176 5.42427C10.8504 5.17537 10.2426 5.04856 9.62925 5.05111ZM9.62925 13.2523C9.03069 13.2523 8.44557 13.063 7.94788 12.7083C7.4502 12.3536 7.0623 11.8494 6.83324 11.2596C6.60418 10.6697 6.54425 10.0206 6.66102 9.39442C6.77779 8.76822 7.06603 8.19302 7.48927 7.74155C7.91252 7.29009 8.45177 6.98264 9.03883 6.85808C9.62589 6.73352 10.2344 6.79745 10.7874 7.04178C11.3404 7.28611 11.8131 7.69987 12.1456 8.23074C12.4781 8.7616 12.6556 9.38573 12.6556 10.0242C12.6556 10.4481 12.5774 10.8679 12.4253 11.2596C12.2732 11.6512 12.0503 12.0071 11.7692 12.3068C11.4882 12.6066 11.1546 12.8444 10.7874 13.0066C10.4202 13.1688 10.0267 13.2523 9.62925 13.2523Z" fill="white"/>
</svg>
