<svg width="21" height="13" viewBox="0 0 21 13" fill="none" xmlns="http://www.w3.org/2000/svg">
<path d="M6.41524 6.5L0 10.5775V2.4225L6.41524 6.5ZM14.5848 6.5L21 10.5775V2.4225L14.5848 6.5ZM13.6474 7.0975L10.7791 8.92C10.6946 8.9725 10.5973 9 10.5 9C10.4027 9 10.3054 8.9725 10.2209 8.92L7.35256 7.0975L0.425122 11.5L0.0230488 11.755C0.148537 12.46 0.778537 13 1.53659 13H19.4634C20.2215 13 20.8515 12.4625 20.977 11.755L20.5723 11.5L13.6474 7.0975ZM10.5 7.9025L20.5723 1.5L20.977 1.245C20.8515 0.5375 20.2215 0 19.4634 0H1.53659C0.778537 0 0.148537 0.54 0.0230488 1.245L0.425122 1.5L10.5 7.9025Z" fill="white"/>
</svg>
