<svg width="21" height="20" viewBox="0 0 21 20" fill="none" xmlns="http://www.w3.org/2000/svg">
<path d="M15.1242 11.9206L15.1169 11.9814C13.3354 11.0935 13.1491 10.9752 12.9191 11.3203C12.7595 11.5593 12.2945 12.1013 12.1543 12.2617C12.0125 12.4197 11.8716 12.4318 11.631 12.3224C11.388 12.2009 10.6078 11.9457 9.68431 11.1194C8.96494 10.4754 8.48212 9.68556 8.33954 9.44253C8.10218 9.03261 8.59878 8.97429 9.05081 8.11882C9.13182 7.9487 9.09051 7.81503 9.03056 7.69432C8.9698 7.57281 8.48617 6.38196 8.28365 5.90724C8.08922 5.43414 7.88913 5.49409 7.73926 5.49409C7.27264 5.45358 6.93158 5.46006 6.63104 5.77276C5.32353 7.20988 5.65324 8.69237 6.77199 10.2688C8.97061 13.1463 10.142 13.6761 12.2839 14.4117C12.8623 14.5956 13.3897 14.5697 13.8069 14.5097C14.2719 14.436 15.2384 13.9256 15.4401 13.3545C15.6467 12.7834 15.6467 12.3095 15.5859 12.2001C15.526 12.0908 15.3672 12.03 15.1242 11.9206Z" fill="white"/>
<path d="M17.5647 3.12447C11.3358 -2.89702 1.02728 1.47024 1.02323 9.96498C1.02323 11.663 1.46797 13.3188 2.31534 14.781L0.941406 19.7729L6.07341 18.4346C12.4773 21.8937 20.3806 17.3005 20.3839 9.96984C20.3839 7.39695 19.3793 4.97556 17.5526 3.15607L17.5647 3.12447ZM18.7653 9.9431C18.7604 16.1266 11.9726 19.9884 6.60402 16.8322L6.31239 16.6589L3.2745 17.4487L4.08865 14.4959L3.89504 14.1921C0.554177 8.87377 4.39244 1.92309 10.721 1.92309C12.871 1.92309 14.8889 2.76155 16.4087 4.28049C17.9276 5.78647 18.7653 7.80443 18.7653 9.9431Z" fill="white"/>
</svg>
